<?xml version="1.0" encoding="UTF-8" standalone="no"?>
<!-- Created with Inkscape (http://www.inkscape.org/) -->

<svg
   xmlns:dc="http://purl.org/dc/elements/1.1/"
   xmlns:cc="http://creativecommons.org/ns#"
   xmlns:rdf="http://www.w3.org/1999/02/22-rdf-syntax-ns#"
   xmlns:svg="http://www.w3.org/2000/svg"
   xmlns="http://www.w3.org/2000/svg"
   xmlns:sodipodi="http://sodipodi.sourceforge.net/DTD/sodipodi-0.dtd"
   xmlns:inkscape="http://www.inkscape.org/namespaces/inkscape"
   width="24"
   height="24"
   viewBox="0 0 24 24"
   id="svg2"
   version="1.1"
   inkscape:version="0.91 r13725"
   sodipodi:docname="icon inactive.svg"
   inkscape:export-filename="C:\Users\matth\Desktop\icon.png"
   inkscape:export-xdpi="90"
   inkscape:export-ydpi="90">
  <defs
     id="defs4" />
  <sodipodi:namedview
     id="base"
     pagecolor="#ffffff"
     bordercolor="#666666"
     borderopacity="1.0"
     inkscape:pageopacity="0.0"
     inkscape:pageshadow="2"
     inkscape:zoom="13.16668"
     inkscape:cx="16.305624"
     inkscape:cy="12.871527"
     inkscape:document-units="px"
     inkscape:current-layer="layer1"
     showgrid="false"
     units="px"
     inkscape:window-width="1280"
     inkscape:window-height="657"
     inkscape:window-x="-8"
     inkscape:window-y="-8"
     inkscape:window-maximized="1" />
  <metadata
     id="metadata7">
    <rdf:RDF>
      <cc:Work
         rdf:about="">
        <dc:format>image/svg+xml</dc:format>
        <dc:type
           rdf:resource="http://purl.org/dc/dcmitype/StillImage" />
        <dc:title></dc:title>
      </cc:Work>
    </rdf:RDF>
  </metadata>
  <g
     inkscape:label="Calque 1"
     inkscape:groupmode="layer"
     id="layer1"
     transform="translate(0,-1028.3622)">
    <path
       style="fill:#333333"
       d="m 0,1051.778 c 0,-1.1549 0.92072806,-3.6514 1.8416616,-4.9936 1.0487385,-1.5284 2.6925276,-2.8801 4.4510216,-3.6602 0.6439019,-0.2857 1.2015188,-0.5416 1.2391484,-0.5688 0.037628,-0.027 -0.6474144,-0.6938 -1.5223205,-1.4813 -1.9354745,-1.7418 -2.6500425,-3.4862 -2.4257547,-5.9218 0.445763,-4.8407 6.0486124,-7.9654 11.4210406,-6.3697 2.788771,0.8282 5.194522,3.502 5.641845,6.2704 0.351314,2.1742 -1.290375,5.5893 -3.215439,6.6887 -0.987122,0.5637 -0.946022,0.7492 0.279021,1.2584 1.422135,0.5911 3.550955,2.3548 4.441968,3.6801 0.882125,1.312 1.847808,3.8934 1.847808,4.9394 0,0.655 -0.103526,0.7426 -0.878048,0.7426 -0.482926,0 -0.87805,-0.037 -0.87805,-0.081 0,-0.7093 -0.774105,-3.3236 -1.19917,-4.0499 -2.51586,-4.2986 -8.517108,-5.957 -13.6390808,-3.7689 -3.0759519,1.3139 -5.3568705,4.2471 -5.3568705,6.8885 0,0.9853 -0.026005,1.0111 -1.0243909,1.0111 C 0.15189281,1052.3619 0,1052.2755 0,1051.7777 Z m 13.403119,-10.141 c 1.798583,-0.3617 3.484092,-1.4264 4.394448,-2.7762 0.652624,-0.9677 0.787801,-1.4745 0.787801,-2.954 0,-1.4973 -0.132662,-1.9826 -0.82106,-3.0034 -2.725447,-4.0416 -9.3957721,-3.7905 -11.7720204,0.4431 -0.6907865,1.2308 -0.7811525,1.6444 -0.6450613,2.9526 0.2763776,2.6568 2.2588557,4.7452 5.0435797,5.3132 1.550775,0.3162 1.561892,0.3163 3.012313,0.025 z"
       id="path3347"
       inkscape:connector-curvature="0"
       sodipodi:nodetypes="ssccssssscsssssssssssssssss"
       inkscape:export-xdpi="90"
       inkscape:export-ydpi="90" />
  </g>
</svg>
