<?xml version="1.0" encoding="UTF-8" standalone="no"?>
<!-- Created with Inkscape (http://www.inkscape.org/) -->

<svg
   xmlns:dc="http://purl.org/dc/elements/1.1/"
   xmlns:cc="http://creativecommons.org/ns#"
   xmlns:rdf="http://www.w3.org/1999/02/22-rdf-syntax-ns#"
   xmlns:svg="http://www.w3.org/2000/svg"
   xmlns="http://www.w3.org/2000/svg"
   xmlns:sodipodi="http://sodipodi.sourceforge.net/DTD/sodipodi-0.dtd"
   xmlns:inkscape="http://www.inkscape.org/namespaces/inkscape"
   width="128"
   height="128"
   viewBox="0 0 128 128"
   id="svg2"
   version="1.1"
   inkscape:version="0.91 r13725"
   sodipodi:docname="favicon bleu.svg"
   inkscape:export-filename="C:\Users\matth\Desktop\script-icon128x128.png"
   inkscape:export-xdpi="90"
   inkscape:export-ydpi="90">
  <defs
     id="defs4" />
  <sodipodi:namedview
     id="base"
     pagecolor="#ffffff"
     bordercolor="#666666"
     borderopacity="1.0"
     inkscape:pageopacity="0.0"
     inkscape:pageshadow="2"
     inkscape:zoom="3.959798"
     inkscape:cx="85.73149"
     inkscape:cy="72.794791"
     inkscape:document-units="px"
     inkscape:current-layer="layer1"
     showgrid="false"
     units="px"
     inkscape:window-width="1280"
     inkscape:window-height="961"
     inkscape:window-x="-8"
     inkscape:window-y="-8"
     inkscape:window-maximized="1" />
  <metadata
     id="metadata7">
    <rdf:RDF>
      <cc:Work
         rdf:about="">
        <dc:format>image/svg+xml</dc:format>
        <dc:type
           rdf:resource="http://purl.org/dc/dcmitype/StillImage" />
        <dc:title></dc:title>
      </cc:Work>
    </rdf:RDF>
  </metadata>
  <g
     inkscape:label="Calque 1"
     inkscape:groupmode="layer"
     id="layer1"
     transform="translate(0,-924.36216)">
    <g
       transform="matrix(1.1729665,0,0,1.1701039,-9.3319911,-168.56541)"
       style="font-style:normal;font-variant:normal;font-weight:normal;font-stretch:normal;font-size:117.786026px;line-height:125%;font-family:'Black boys on mopeds';-inkscape-font-specification:'Black boys on mopeds';text-align:center;letter-spacing:0px;word-spacing:0px;writing-mode:lr-tb;text-anchor:middle;fill:#f8a839;fill-opacity:1;stroke:#f8a839;stroke-width:7.92787552;stroke-linecap:butt;stroke-linejoin:miter;stroke-miterlimit:4;stroke-dasharray:none;stroke-opacity:1"
       id="text3342-7">
      <path
         style="color:#000000;font-style:normal;font-variant:normal;font-weight:normal;font-stretch:normal;font-size:medium;line-height:125%;font-family:'Black boys on mopeds';-inkscape-font-specification:'Black boys on mopeds';text-indent:0;text-align:start;text-decoration:none;text-decoration-line:none;text-decoration-style:solid;text-decoration-color:#000000;letter-spacing:0px;word-spacing:0px;text-transform:none;direction:ltr;block-progression:tb;writing-mode:lr-tb;baseline-shift:baseline;text-anchor:start;white-space:normal;clip-rule:nonzero;display:inline;overflow:visible;visibility:visible;opacity:1;isolation:auto;mix-blend-mode:normal;color-interpolation:sRGB;color-interpolation-filters:linearRGB;solid-color:#000000;solid-opacity:1;fill:#0A6496;fill-opacity:1;fill-rule:nonzero;stroke:none;stroke-width:7.92787552;stroke-linecap:butt;stroke-linejoin:round;stroke-miterlimit:4;stroke-dasharray:none;stroke-dashoffset:0;stroke-opacity:1;color-rendering:auto;image-rendering:auto;shape-rendering:auto;text-rendering:auto;enable-background:accumulate"
         d="m 78.710938,10.300781 c -0.149095,-0.0041 -0.298549,-0.0017 -0.447266,0.0098 -3.751194,0.306492 -6.375047,1.887559 -8.353516,4.748047 C 69.263284,15.99387 69.151334,16.541827 68.808594,17.3223 66.178364,15.646192 62.879137,14.02031 58.199219,13.863315 51.130723,13.62622 44.53268,17.009596 40.273438,22.617222 36.146532,28.0506 33.930465,35.08267 32.841797,43.406284 l -0.0039,0.02344 c -0.0013,0.0095 -0.0026,0.01743 -0.0039,0.02734 l -0.0059,0.03516 c -0.01368,0.09638 -0.02238,0.193884 -0.0293,0.291015 l -0.002,0.01953 c -0.0015,0.01624 -0.0024,0.01892 -0.0039,0.03516 l -0.002,0.03125 c -1.277775,14.515647 -1.019396,20.233176 -0.455078,23.857421 -0.190412,0.301642 -0.162727,0.215905 -0.46875,0.742188 l 0.002,0 c -4.047796,6.961107 -4.073101,15.222137 -4.169922,22.253906 -0.04941,3.588698 0.0505,6.907765 0.162109,9.460936 0.106598,3.10363 -0.23353,7.61696 3.107422,11.46875 1.16198,1.33944 2.488875,2.41793 3.869141,3.33008 2.701438,1.78528 6.354252,3.49479 10.779297,3.46094 l 0.0039,0 c 2.091367,-0.0179 4.241111,-0.57776 6.214844,-2.07031 l 0.002,0 c 1.858539,-1.40693 2.888624,-3.18213 3.457031,-4.63282 0.432835,-1.1048 0.613822,-2.10541 0.755859,-3.04687 2.979946,0.70388 6.328821,1.23272 10.498047,1.17578 7.120598,-0.097 14.317095,-2.73874 20.179688,-7.45312 5.936239,-4.773654 10.630859,-12.196087 10.630859,-21.181647 l 0,-0.07422 c -1.34e-4,-0.04007 -6.81e-4,-0.07981 -0.002,-0.11914 l -0.002,-0.07422 -0.002,-0.02539 c -0.195697,-5.53922 -0.452406,-9.28425 -1.039063,-12.419922 -0.60965,-3.258574 -1.796077,-6.366386 -4.207031,-8.726562 -1.153895,-1.129588 -2.169786,-1.777908 -3.076172,-2.339844 0.03089,-0.101022 0.07222,-0.141877 0.101562,-0.246094 0.970454,-3.447288 1.466682,-7.206893 1.859376,-10.970703 0.394405,-3.780239 0.647857,-7.574188 0.875,-10.636719 0.110304,-1.487213 0.243623,-2.901883 0.357421,-3.958984 0.0569,-0.52855 0.109762,-0.970383 0.148438,-1.273437 0.03868,-0.303055 0.201064,-0.932943 0,-0.134766 1.205982,-4.787356 0.128731,-9.445795 -2.070313,-13 -1.980385,-3.200798 -5.632065,-6.172141 -10.4375,-6.732422 -0.369322,-0.118516 -0.752957,-0.186565 -1.140625,-0.199219 -0.0044,-1.18e-4 -0.0075,-0.0015 -0.01172,-0.002 l -0.002,0 z m -2.636719,13.257813 c 1.784306,-0.04238 3.54873,0.231232 4.642578,1.632812 1.093848,1.40159 1.079169,3.318965 0.470703,5.734375 -0.199652,0.79255 -0.391494,3.047031 -0.539062,5.712891 -0.14757,2.66586 -0.291648,5.836127 -0.554688,8.904297 -0.26304,3.06817 -0.634806,6.022917 -1.300781,8.367187 -0.332988,1.17214 -0.729848,2.196745 -1.322266,3.052735 -0.592418,0.85599 -1.514275,1.608906 -2.669922,1.691406 -1.540742,0.10995 -2.97063,-0.46308 -3.748047,-1.5 -0.777416,-1.03691 -0.971613,-2.23801 -1.076172,-3.443359 -0.209116,-2.41071 -0.001,-5.117135 -0.527343,-6.953126 -0.669847,-2.33665 -1.395664,-5.595576 -2.648438,-8.154296 -0.626387,-1.27936 -1.375496,-2.360709 -2.222656,-3.074219 -0.84716,-0.7135 -1.751561,-1.100144 -3.001953,-1.089844 -2.955986,0.02442 -4.311138,0.664002 -5.25586,1.669922 -0.94472,1.00593 -1.552696,2.665554 -2.24414,4.902344 -1.392664,4.50519 -2.593243,8.559913 -1.371094,12.689453 0.635132,2.14605 1.244269,3.161105 2.765625,4.078125 1.521356,0.91703 4.178293,1.653446 8.623047,2.410156 4.647371,0.79121 9.818074,2.394055 13.947266,5.421875 4.129192,3.02782 7.179687,7.62901 7.179687,13.88086 0,6.1756 -2.51792,10.814559 -6.316406,13.755859 -3.798486,2.9412 -8.768327,4.246453 -13.783203,4.314453 -8.169717,0.1114 -13.572389,-2.674419 -16.585938,-4.574219 -0.374184,1.754 -0.460754,4.058416 -0.402344,6.416016 0.0382,1.541903 0.06661,2.989083 -0.27539,4.304683 -0.170999,0.6578 -0.44658,1.32054 -0.994141,1.86524 -0.547561,0.5448 -1.37627,0.86305 -2.177734,0.87305 -2.374845,0.0181 -4.103202,-1.19262 -4.855469,-2.63282 -0.752265,-1.4402 -0.765625,-2.93064 -0.765625,-3.873044 0,-0.7743 -0.09722,-6.945972 -0.175781,-12.951172 -0.03928,-3.0026 -0.07313,-5.985815 -0.08789,-8.291015 -0.0074,-1.1525 -0.01026,-2.133994 -0.0059,-2.871094 0.0044,-0.73715 -0.02676,-1.007979 0.04883,-1.537109 0.199986,-1.39989 1.051037,-2.180849 2.132812,-3.017578 1.081778,-0.83674 2.506257,-1.542969 4.154297,-1.542969 1.146408,0 2.100229,0.689278 2.689453,1.455078 0.589226,0.76579 0.965789,1.658679 1.275391,2.605469 0.619204,1.89355 0.926721,4.038987 1.132813,5.554687 0.121345,0.8925 1.268121,3.390806 3.419922,5.378906 2.151799,1.9882 5.226262,3.625 9.33789,3.625 4.380905,0 8.005577,-0.611806 10.253906,-1.878906 2.24833,-1.2671 3.297947,-2.914384 3.050782,-6.083984 -0.247928,-3.1793 -1.819732,-5.889598 -4.591797,-8.054688 -2.772065,-2.16509 -6.766325,-3.727392 -11.666016,-4.326172 -5.301777,-0.64792 -9.801522,-2.264399 -12.767578,-5.662109 -2.966056,-3.39771 -4.173781,-8.398113 -3.375,-15.195312 l 0.002,-0.0098 0,-0.0078 c 0.940647,-7.22875 2.796222,-12.565872 5.695313,-16.164062 2.89909,-3.59818 6.924667,-5.30947 11.492187,-5.15625 4.792196,0.16075 7.378726,3.345295 8.90625,5.765625 0.763762,1.21017 1.377597,2.264815 1.767578,2.671875 0.194991,0.20303 0.275421,0.213031 0.244141,0.207031 -0.03128,-0.0065 -0.04905,0.04147 0.195312,-0.09961 0.469469,-0.27105 0.724379,-0.708023 0.898438,-1.564453 0.174055,-0.85642 0.173905,-2.018637 0.140625,-3.191407 -0.03328,-1.17277 -0.114938,-2.332024 0.101562,-3.458984 0.10825,-0.56347 0.296408,-1.160499 0.765625,-1.693359 0.469217,-0.53285 1.24969,-0.871472 1.97461,-0.888672 z"
         transform="matrix(0.94831044,0,0,0.94831044,3.2274148,927.6951)"
         id="path4147-0"
         inkscape:connector-curvature="0" />
    </g>
    <g
       style="font-style:normal;font-variant:normal;font-weight:normal;font-stretch:normal;font-size:117.786026px;line-height:125%;font-family:'Black boys on mopeds';-inkscape-font-specification:'Black boys on mopeds';text-align:center;letter-spacing:0px;word-spacing:0px;writing-mode:lr-tb;text-anchor:middle;fill:#ffffff;fill-opacity:1;stroke:#ffffff;stroke-width:1px;stroke-linecap:butt;stroke-linejoin:miter;stroke-opacity:1"
       id="text3342" />
  </g>
</svg>
