<?xml version="1.0" encoding="UTF-8" standalone="no"?>
<svg
     xmlns:dc="http://purl.org/dc/elements/1.1/"
     xmlns:cc="http://creativecommons.org/ns#"
     xmlns:rdf="http://www.w3.org/1999/02/22-rdf-syntax-ns#"
     xmlns:svg="http://www.w3.org/2000/svg"
     xmlns="http://www.w3.org/2000/svg"
     version="1.1"
     id="svg2"
     viewBox="0 0 24 28"
     height="28"
     width="24">
    <defs
         id="defs4" />
    <metadata
         id="metadata7">
        <rdf:RDF>
            <cc:Work
                 rdf:about="">
                <dc:format>image/svg+xml</dc:format>
                <dc:type
                     rdf:resource="http://purl.org/dc/dcmitype/StillImage" />
                <dc:title></dc:title>
            </cc:Work>
        </rdf:RDF>
    </metadata>
    <g
         transform="translate(0,-1024.3622)"
         id="layer1">
        <circle
             r="7.5991526"
             cy="1033.3241"
             cx="12.002902"
             id="path3334"
             style="opacity:1;fill:#26d9bb;fill-opacity:1;fill-rule:nonzero;stroke:none;stroke-width:1;stroke-linecap:round;stroke-linejoin:round;stroke-miterlimit:4;stroke-dasharray:none;stroke-dashoffset:0;stroke-opacity:1" />
        <path
             id="path3347"
             d="m 0,1051.692 c 0,-1.3249 0.92072805,-4.189 1.8416616,-5.7288 1.0487385,-1.7534 2.6925276,-3.3041 4.4510215,-4.1991 0.6439019,-0.3278 1.2015188,-0.6213 1.2391484,-0.6525 0.037628,-0.031 -0.6474144,-0.796 -1.5223205,-1.6994 -1.9354745,-1.9983 -2.6500424,-3.9995 -2.4257547,-6.7937 0.445763,-5.5533 6.0486123,-9.1381 11.4210407,-7.3075 2.788771,0.9502 5.194522,4.0176 5.641844,7.1936 0.351315,2.4943 -1.290375,6.4122 -3.215438,7.6735 -0.987122,0.6467 -0.946022,0.8595 0.27902,1.4436 1.422135,0.6782 3.550956,2.7015 4.441968,4.222 0.882125,1.5051 1.847809,4.4666 1.847809,5.6666 0,0.7514 -0.103526,0.8519 -0.878048,0.8519 -0.482927,0 -0.87805,-0.042 -0.87805,-0.093 0,-0.8138 -0.774106,-3.813 -1.199171,-4.6462 -2.515859,-4.9315 -8.517108,-6.834 -13.6390799,-4.3238 -3.0759519,1.5074 -5.3568704,4.8724 -5.3568704,7.9027 0,1.1304 -0.026006,1.1599 -1.0243909,1.1599 C 0.15189281,1052.3619 0,1052.2627 0,1051.6916 Z m 13.403118,-11.6341 c 1.798583,-0.4149 3.484092,-1.6364 4.394448,-3.1849 0.652625,-1.1102 0.787801,-1.6916 0.787801,-3.3889 0,-1.7177 -0.132662,-2.2745 -0.821059,-3.4456 -2.725447,-4.6366 -9.3957722,-4.3485 -11.7720204,0.5084 -0.6907866,1.412 -0.7811526,1.8865 -0.6450614,3.3873 0.2763776,3.0479 2.2588557,5.4438 5.0435798,6.0954 1.550775,0.3628 1.561891,0.3629 3.012312,0.029 z"
             style="fill:#333333" />
    </g>
</svg>
